<?xml version="1.0" encoding="UTF-8"?>
<svg xmlns="http://www.w3.org/2000/svg" width="1200" height="630" viewBox="0 0 1200 630" role="img" aria-label="GOTRA Public Ledger public-safe demo snapshot">
  <rect width="1200" height="630" fill="#070b0f"/>
  <rect x="42" y="42" width="1116" height="546" rx="28" fill="#0b1117" stroke="#263441"/>
  <path d="M96 128 L150 96 L150 160 Z" fill="#75d88f"/>
  <path d="M156 96 L214 128 L156 160 Z" fill="#69a7ff"/>
  <text x="96" y="230" fill="#f6fbf8" font-size="58" font-weight="900">GOTRA Public Ledger</text>
  <text x="96" y="292" fill="#f6fbf8" font-size="44" font-weight="850">AI股票研究 · 公开预测账本 · 可审计</text>
  <text x="96" y="350" fill="#9aa9b5" font-size="26">public-safe demo snapshot 2026-02-10 · research information only · not investment advice</text>
  
      <g transform="translate(92, 430)">
        <rect width="164" height="112" rx="14" fill="#101820" stroke="#263441"/>
        <text x="18" y="38" fill="#9aa9b5" font-size="20" font-weight="700">公开预测</text>
        <text x="18" y="82" fill="#75d88f" font-size="38" font-weight="900">54</text>
      </g>
      <g transform="translate(292, 430)">
        <rect width="164" height="112" rx="14" fill="#101820" stroke="#263441"/>
        <text x="18" y="38" fill="#9aa9b5" font-size="20" font-weight="700">已结算</text>
        <text x="18" y="82" fill="#75d88f" font-size="38" font-weight="900">48</text>
      </g>
      <g transform="translate(492, 430)">
        <rect width="164" height="112" rx="14" fill="#101820" stroke="#263441"/>
        <text x="18" y="38" fill="#9aa9b5" font-size="20" font-weight="700">公开错误</text>
        <text x="18" y="82" fill="#75d88f" font-size="38" font-weight="900">20</text>
      </g>
      <g transform="translate(692, 430)">
        <rect width="164" height="112" rx="14" fill="#101820" stroke="#263441"/>
        <text x="18" y="38" fill="#9aa9b5" font-size="20" font-weight="700">覆盖标的</text>
        <text x="18" y="82" fill="#75d88f" font-size="38" font-weight="900">10</text>
      </g>
      <g transform="translate(892, 430)">
        <rect width="164" height="112" rx="14" fill="#101820" stroke="#263441"/>
        <text x="18" y="38" fill="#9aa9b5" font-size="20" font-weight="700">结算覆盖</text>
        <text x="18" y="82" fill="#75d88f" font-size="38" font-weight="900">88.9%</text>
      </g>
  <text x="96" y="575" fill="#71818e" font-size="20">不声称 OOS / 科学公开证明 / 交易信号。错误也保留在同一公开账本中。</text>
</svg>
